<svg width="35" height="35" viewBox="0 0 35 35" fill="none" xmlns="http://www.w3.org/2000/svg">
<path d="M17.5 33.5417C17.1132 33.5417 16.7423 33.388 16.4688 33.1145C16.1953 32.841 16.0416 32.4701 16.0416 32.0833V27.7083H10.2083C9.43476 27.7083 8.6929 27.4011 8.14592 26.8541C7.59894 26.3071 7.29165 25.5652 7.29165 24.7917V10.2083C7.29165 9.43479 7.59894 8.69293 8.14592 8.14595C8.6929 7.59897 9.43476 7.29168 10.2083 7.29168H30.625C31.3985 7.29168 32.1404 7.59897 32.6874 8.14595C33.2344 8.69293 33.5416 9.43479 33.5416 10.2083V24.7917C33.5416 25.5652 33.2344 26.3071 32.6874 26.8541C32.1404 27.4011 31.3985 27.7083 30.625 27.7083H24.6458L19.25 33.1188C18.9583 33.3813 18.6083 33.5417 18.2291 33.5417H17.5ZM4.37498 21.875H1.45831V4.37501C1.45831 3.60146 1.7656 2.8596 2.31258 2.31262C2.85957 1.76563 3.60143 1.45834 4.37498 1.45834H27.7083V4.37501H4.37498V21.875Z" fill="white"/>
</svg>
