<svg width="45" height="45" viewBox="0 0 45 45" fill="none" xmlns="http://www.w3.org/2000/svg">
<path d="M9.02344 25.1953C8.27474 25.1953 7.63865 24.933 7.11516 24.4083C6.59047 23.8848 6.32812 23.2487 6.32812 22.5C6.32812 21.7513 6.59047 21.1152 7.11516 20.5917C7.63865 20.067 8.27474 19.8047 9.02344 19.8047C9.77214 19.8047 10.4082 20.067 10.9317 20.5917C11.4564 21.1152 11.7188 21.7513 11.7188 22.5C11.7188 23.2487 11.4564 23.8848 10.9317 24.4083C10.4082 24.933 9.77214 25.1953 9.02344 25.1953ZM9.02344 14.4141C8.27474 14.4141 7.63865 14.1517 7.11516 13.627C6.59047 13.1035 6.32812 12.4674 6.32812 11.7188C6.32812 10.9701 6.59047 10.334 7.11516 9.81047C7.63865 9.28578 8.27474 9.02344 9.02344 9.02344C9.77214 9.02344 10.4082 9.28578 10.9317 9.81047C11.4564 10.334 11.7188 10.9701 11.7188 11.7188C11.7188 12.4674 11.4564 13.1035 10.9317 13.627C10.4082 14.1517 9.77214 14.4141 9.02344 14.4141ZM9.02344 35.9766C8.27474 35.9766 7.63865 35.7142 7.11516 35.1895C6.59047 34.666 6.32812 34.0299 6.32812 33.2812C6.32812 32.5326 6.59047 31.8965 7.11516 31.373C7.63865 30.8483 8.27474 30.5859 9.02344 30.5859C9.77214 30.5859 10.4082 30.8483 10.9317 31.373C11.4564 31.8965 11.7188 32.5326 11.7188 33.2812C11.7188 34.0299 11.4564 34.666 10.9317 35.1895C10.4082 35.7142 9.77214 35.9766 9.02344 35.9766ZM17.1094 35.0781C16.6003 35.0781 16.1738 34.9056 15.83 34.5606C15.485 34.2168 15.3125 33.7904 15.3125 33.2812C15.3125 32.7721 15.485 32.3457 15.83 32.0019C16.1738 31.6569 16.6003 31.4844 17.1094 31.4844H36.875C37.3841 31.4844 37.8106 31.6569 38.1544 32.0019C38.4994 32.3457 38.6719 32.7721 38.6719 33.2812C38.6719 33.7904 38.4994 34.2168 38.1544 34.5606C37.8106 34.9056 37.3841 35.0781 36.875 35.0781H17.1094ZM17.1094 24.2969C16.6003 24.2969 16.1738 24.1244 15.83 23.7794C15.485 23.4356 15.3125 23.0091 15.3125 22.5C15.3125 21.9909 15.485 21.5638 15.83 21.2188C16.1738 20.875 16.6003 20.7031 17.1094 20.7031H36.875C37.3841 20.7031 37.8106 20.875 38.1544 21.2188C38.4994 21.5638 38.6719 21.9909 38.6719 22.5C38.6719 23.0091 38.4994 23.4356 38.1544 23.7794C37.8106 24.1244 37.3841 24.2969 36.875 24.2969H17.1094ZM17.1094 13.5156C16.6003 13.5156 16.1738 13.3437 15.83 12.9999C15.485 12.6549 15.3125 12.2279 15.3125 11.7188C15.3125 11.2096 15.485 10.7826 15.83 10.4376C16.1738 10.0938 16.6003 9.92188 17.1094 9.92188H36.875C37.3841 9.92188 37.8106 10.0938 38.1544 10.4376C38.4994 10.7826 38.6719 11.2096 38.6719 11.7188C38.6719 12.2279 38.4994 12.6549 38.1544 12.9999C37.8106 13.3437 37.3841 13.5156 36.875 13.5156H17.1094Z" fill="white"/>
</svg>
